<?xml version="1.0" encoding="UTF-8" standalone="no"?>
<!-- Created with Inkscape (http://www.inkscape.org/) -->

<svg
   width="210mm"
   height="297mm"
   viewBox="0 0 210 297"
   version="1.1"
   id="svg1"
   xml:space="preserve"
   inkscape:version="1.3.2 (091e20e, 2023-11-25, custom)"
   sodipodi:docname="Logo_Ellie.svg"
   inkscape:export-filename="Logo_Ellie.svg"
   inkscape:export-xdpi="96"
   inkscape:export-ydpi="96"
   xmlns:inkscape="http://www.inkscape.org/namespaces/inkscape"
   xmlns:sodipodi="http://sodipodi.sourceforge.net/DTD/sodipodi-0.dtd"
   xmlns="http://www.w3.org/2000/svg"
   xmlns:svg="http://www.w3.org/2000/svg"><sodipodi:namedview
     id="namedview1"
     pagecolor="#ffffff"
     bordercolor="#000000"
     borderopacity="0.25"
     inkscape:showpageshadow="2"
     inkscape:pageopacity="0.0"
     inkscape:pagecheckerboard="0"
     inkscape:deskcolor="#d1d1d1"
     inkscape:document-units="mm"
     inkscape:zoom="2"
     inkscape:cx="326.5"
     inkscape:cy="296.75"
     inkscape:window-width="1920"
     inkscape:window-height="1111"
     inkscape:window-x="-9"
     inkscape:window-y="-9"
     inkscape:window-maximized="1"
     inkscape:current-layer="layer3" /><defs
     id="defs1" /><g
     inkscape:groupmode="layer"
     id="layer3"
     inkscape:label="foglie inferiori"
     inkscape:highlight-color="#91bbff"
     style="display:inline"
     sodipodi:insensitive="true"><rect
       style="fill:#afbe8c;fill-opacity:1;stroke:#afbe8c;stroke-width:0.01;stroke-opacity:1"
       id="rect1"
       width="40.972416"
       height="16.370258"
       x="74.084358"
       y="84.564079" /></g><g
     inkscape:groupmode="layer"
     id="layer7"
     inkscape:label="foglie superiori"
     inkscape:highlight-color="#085e01"
     style="display:inline"
     transform="translate(0.09354433,0.37417734)"><g
       id="g26"
       inkscape:label="foglia dx"><path
         style="display:inline;fill:#afbe8c;fill-opacity:1;stroke:#afbe8c;stroke-width:0.11;stroke-dasharray:none;stroke-opacity:1"
         d="M 43.591659,118.24004 57.903943,85.405978 83.441547,78.857874 76.035009,105.97486 Z"
         id="path20"
         inkscape:label="triangolo base"
         sodipodi:nodetypes="ccccc" /><path
         style="display:inline;fill:#a0af82;fill-opacity:1;stroke:#a0af82;stroke-width:0;stroke-dasharray:none;stroke-opacity:1"
         d="M 57.51565,85.400303 43.491143,118.33778 66.731185,95.444453 Z"
         id="path24"
         inkscape:label="triangolo BS"
         sodipodi:nodetypes="cccc" /><path
         style="display:inline;fill:#7d8764;fill-opacity:1;stroke:#7d8764;stroke-width:0.11;stroke-dasharray:none;stroke-opacity:1"
         d="M 57.606774,85.439051 66.589623,95.547513 83.441547,78.857874 Z"
         id="path22"
         inkscape:label="triangolo AS"
         sodipodi:nodetypes="cccc" /><path
         style="fill:#a0af82;fill-opacity:1;stroke:#a0af82;stroke-width:0.11;stroke-dasharray:none;stroke-opacity:1"
         d="M 83.513366,78.932288 66.63664,95.613659 76.051544,105.89219 Z"
         id="path23"
         inkscape:label="triangolo AD"
         sodipodi:nodetypes="cccc" /></g><g
       id="g29"
       inkscape:label="foglia sx"
       transform="rotate(-90,94.04976,67.388294)"><path
         style="display:inline;fill:#afbe8c;fill-opacity:1;stroke:#afbe8c;stroke-width:0.11;stroke-dasharray:none;stroke-opacity:1"
         d="M 43.591659,118.24004 57.903943,85.405978 83.441547,78.857874 76.035009,105.97486 Z"
         id="path26"
         inkscape:label="triangolo base"
         sodipodi:nodetypes="ccccc" /><path
         style="display:inline;fill:#a0af82;fill-opacity:1;stroke:#a0af82;stroke-width:0;stroke-dasharray:none;stroke-opacity:1"
         d="M 57.51565,85.400303 43.491143,118.33778 66.731185,95.444453 Z"
         id="path27"
         inkscape:label="triangolo BS"
         sodipodi:nodetypes="cccc" /><path
         style="display:inline;fill:#7d8764;fill-opacity:1;stroke:#7d8764;stroke-width:0.11;stroke-dasharray:none;stroke-opacity:1"
         d="M 57.606774,85.439051 66.589623,95.547513 83.441547,78.857874 Z"
         id="path28"
         inkscape:label="triangolo AS"
         sodipodi:nodetypes="cccc" /><path
         style="fill:#a0af82;fill-opacity:1;stroke:#a0af82;stroke-width:0.11;stroke-dasharray:none;stroke-opacity:1"
         d="M 83.513366,78.932288 66.63664,95.613659 76.051544,105.89219 Z"
         id="path29"
         inkscape:label="triangolo AD"
         sodipodi:nodetypes="cccc" /></g></g><g
     inkscape:groupmode="layer"
     id="layer4"
     inkscape:label="tri petal"
     style="display:inline"
     sodipodi:insensitive="true"><path
       style="display:inline;fill:#f5f0d7;fill-opacity:1;stroke:#f5f0d7;stroke-width:0.001;stroke-dasharray:none;stroke-opacity:1"
       d="m 67.923248,42.695837 -9.951613,26.362601 62.066515,23.892994 9.92187,-26.317774 z"
       id="path16"
       sodipodi:nodetypes="ccccc" /><path
       style="display:inline;fill:#f5f0d7;fill-opacity:1;stroke:#f5f0d7;stroke-width:0.001;stroke-dasharray:none;stroke-opacity:1"
       d="M 68.83803,93.866214 95.200631,103.81783 119.09362,41.751312 92.775851,31.829442 Z"
       id="path17"
       sodipodi:nodetypes="ccccc" /></g><g
     inkscape:groupmode="layer"
     id="layer5"
     inkscape:label="pistillo"
     style="display:inline"
     sodipodi:insensitive="true"><path
       style="display:inline;fill:#f0ebdc;fill-opacity:1;stroke:#f0ebdc;stroke-width:0.001;stroke-dasharray:none;stroke-opacity:1"
       d="M 75.583822,60.757045 101.02788,49.578498 112.34674,75.069329 86.855913,86.060787 Z"
       id="path18" /></g><g
     inkscape:groupmode="layer"
     id="layer2"
     inkscape:label="rect petal"
     inkscape:highlight-color="#a94036"
     style="display:inline"
     sodipodi:insensitive="true"><g
       id="g4"
       inkscape:label="rect+tri"
       style="display:none"
       sodipodi:insensitive="true"><path
         style="display:inline;fill:none;stroke:#ff36ab;stroke-width:0.01;stroke-dasharray:none"
         d="M 101.05591,49.658148 92.832268,31.945685 67.924121,42.69968 75.594249,60.728433 101.05591,49.658148"
         id="path1"
         sodipodi:nodetypes="ccccc" /><path
         style="display:inline;fill:none;stroke:#ff36ab;stroke-width:0.01;stroke-dasharray:none"
         d="M 72.194088,52.900159 92.852037,31.985222 75.633786,60.66913"
         id="path2"
         sodipodi:nodetypes="ccc" /></g><g
       id="g6"
       inkscape:label="petal 4"><path
         style="fill:#ebdcc8;fill-opacity:1;stroke:#ebdcc8;stroke-width:0.00377953;stroke-dasharray:none;stroke-opacity:1"
         d="m 273.02311,199.67752 c -0.0109,-0.25742 77.78851,-78.68659 77.9101,-78.79547 -0.0652,0.11448 -65.20348,108.62409 -65.20348,108.62409 0,0 -12.70386,-29.76375 -12.70662,-29.82862 z"
         id="path4"
         transform="scale(0.26458333)"
         sodipodi:nodetypes="cccc" /><path
         style="fill:#f0ebdc;fill-opacity:1;stroke:#f0ebdc;stroke-width:0.00564776;stroke-dasharray:none;stroke-opacity:1"
         d="m 256.71102,161.3788 c 26.66363,-11.5094 93.89065,-40.54551 94.15408,-40.66054 0.0485,0.10476 0.0704,0.15784 0.0704,0.15784 0,0 -55.3848,55.7167 -75.47125,76.2862 l -2.45387,2.51288 c -5.40876,-12.7443 -10.80841,-25.58675 -16.29936,-38.29638 z"
         id="path5"
         sodipodi:nodetypes="cccscc"
         transform="scale(0.26458333)" /><path
         style="display:inline;fill:#e6d7b9;fill-opacity:1;stroke:#e6d7b9;stroke-width:0.00564776;stroke-dasharray:none;stroke-opacity:1"
         d="m 285.70241,229.5159 c 0.14268,-0.20417 65.19908,-108.73042 65.23349,-108.63121 0.13471,0.28822 30.83895,66.37987 30.99442,66.79297 -0.30869,0.17424 -95.98053,41.74135 -96.22791,41.83824 z"
         id="path6"
         transform="scale(0.26458333)"
         sodipodi:nodetypes="cccc" /></g><g
       id="g9"
       inkscape:label="petal 3"
       transform="rotate(-90.549454,93.784429,67.760843)"><path
         style="fill:#ebdcc8;fill-opacity:1;stroke:#ebdcc8;stroke-width:0.00377953;stroke-dasharray:none;stroke-opacity:1"
         d="m 273.02311,199.67752 c -0.0109,-0.25742 77.78851,-78.68659 77.9101,-78.79547 -0.0652,0.11448 -65.20348,108.62409 -65.20348,108.62409 0,0 -12.70386,-29.76375 -12.70662,-29.82862 z"
         id="path7"
         transform="scale(0.26458333)"
         sodipodi:nodetypes="cccc" /><path
         style="fill:#f0ebdc;fill-opacity:1;stroke:#f0ebdc;stroke-width:0.00564776;stroke-dasharray:none;stroke-opacity:1"
         d="m 256.70164,160.87915 c 26.66363,-11.5094 93.90003,-40.04586 94.16346,-40.16089 0.0485,0.10476 0.0704,0.15784 0.0704,0.15784 0,0 -55.3848,55.7167 -75.47125,76.2862 l -2.45387,2.51288 c -5.40876,-12.7443 -10.81779,-26.0864 -16.30874,-38.79603 z"
         id="path8"
         sodipodi:nodetypes="cccscc"
         transform="scale(0.26458333)" /><path
         style="display:inline;fill:#e6d7b9;fill-opacity:1;stroke:#e6d7b9;stroke-width:0.00564776;stroke-dasharray:none;stroke-opacity:1"
         d="m 285.70241,229.5159 c 0.14268,-0.20417 65.19908,-108.73042 65.23349,-108.63121 0.13471,0.28822 30.83895,66.37987 30.99442,66.79297 -0.30869,0.17424 -95.98053,41.74135 -96.22791,41.83824 z"
         id="path9"
         transform="scale(0.26458333)"
         sodipodi:nodetypes="cccc" /></g><g
       id="g12"
       inkscape:label="petal 2"
       transform="rotate(180,93.983998,67.818819)"><path
         style="fill:#ebdcc8;fill-opacity:1;stroke:#ebdcc8;stroke-width:0.00377953;stroke-dasharray:none;stroke-opacity:1"
         d="m 273.02311,199.67752 c -0.0109,-0.25742 77.78851,-78.68659 77.9101,-78.79547 -0.0652,0.11448 -65.20348,108.62409 -65.20348,108.62409 0,0 -12.70386,-29.76375 -12.70662,-29.82862 z"
         id="path10"
         transform="scale(0.26458333)"
         sodipodi:nodetypes="cccc" /><path
         style="fill:#f0ebdc;fill-opacity:1;stroke:#f0ebdc;stroke-width:0.00564776;stroke-dasharray:none;stroke-opacity:1"
         d="m 256.71102,161.3788 c 26.66363,-11.5094 93.89065,-40.54551 94.15408,-40.66054 0.0485,0.10476 0.0704,0.15784 0.0704,0.15784 0,0 -55.3848,55.7167 -75.47125,76.2862 l -2.45387,2.51288 c -5.40876,-12.7443 -10.80841,-25.58675 -16.29936,-38.29638 z"
         id="path11"
         sodipodi:nodetypes="cccscc"
         transform="scale(0.26458333)" /><path
         style="display:inline;fill:#e6d7b9;fill-opacity:1;stroke:#e6d7b9;stroke-width:0.00564776;stroke-dasharray:none;stroke-opacity:1"
         d="m 285.70241,229.5159 c 0.14268,-0.20417 65.19908,-108.73042 65.23349,-108.63121 0.13471,0.28822 30.83895,66.37987 30.99442,66.79297 -0.30869,0.17424 -95.98053,41.74135 -96.22791,41.83824 z"
         id="path12"
         transform="scale(0.26458333)"
         sodipodi:nodetypes="cccc" /></g><g
       id="g15"
       inkscape:label="petal 1"
       transform="rotate(89.497583,93.900934,68.015407)"><path
         style="fill:#ebdcc8;fill-opacity:1;stroke:#ebdcc8;stroke-width:0.00377953;stroke-dasharray:none;stroke-opacity:1"
         d="m 273.02311,199.67752 c -0.0109,-0.25742 77.78851,-78.68659 77.9101,-78.79547 -0.0652,0.11448 -65.20348,108.62409 -65.20348,108.62409 0,0 -12.70386,-29.76375 -12.70662,-29.82862 z"
         id="path13"
         sodipodi:nodetypes="cccc"
         transform="scale(0.26458333)" /><path
         style="fill:#f0ebdc;fill-opacity:1;stroke:#f0ebdc;stroke-width:0.00564776;stroke-dasharray:none;stroke-opacity:1"
         d="m 256.71102,161.3788 c 26.66363,-11.5094 93.89065,-40.54551 94.15408,-40.66054 0.0485,0.10476 0.0704,0.15784 0.0704,0.15784 0,0 -55.3848,55.7167 -75.47125,76.2862 l -2.45387,2.51288 c -5.40876,-12.7443 -10.80841,-25.58675 -16.29936,-38.29638 z"
         id="path14"
         sodipodi:nodetypes="cccscc"
         transform="scale(0.26458333)" /><path
         style="display:inline;fill:#e6d7b9;fill-opacity:1;stroke:#e6d7b9;stroke-width:0.00564776;stroke-dasharray:none;stroke-opacity:1"
         d="m 285.70241,229.5159 c 0.14268,-0.20417 65.19908,-108.73042 65.23349,-108.63121 0.13471,0.28822 30.83895,66.37987 30.99442,66.79297 -0.30869,0.17424 -95.98053,41.74135 -96.22791,41.83824 z"
         id="path15"
         sodipodi:nodetypes="cccc"
         transform="scale(0.26458333)" /></g></g><g
     inkscape:groupmode="layer"
     id="layer6"
     inkscape:label="centro pistillo"
     inkscape:highlight-color="#c9c25a"
     style="display:inline"
     sodipodi:insensitive="true"><rect
       style="display:inline;fill:#cd9b64;fill-opacity:1;stroke:#f0ebdc;stroke-width:0.000767853;stroke-dasharray:none;stroke-opacity:1"
       id="rect18"
       width="11.199232"
       height="11.199232"
       x="88.55706"
       y="62.364971" /><rect
       style="display:inline;fill:#e5c24f;fill-opacity:1;stroke:#e5c24f;stroke-width:0.000544079;stroke-dasharray:none;stroke-opacity:1"
       id="rect20"
       width="7.9354563"
       height="7.9354563"
       x="12.087191"
       y="111.04057"
       transform="rotate(-46.230312)" /><path
       style="fill:#d7b84b;fill-opacity:1;stroke:#d7b84b;stroke-width:0.01;stroke-dasharray:none;stroke-opacity:1"
       d="m 94.047134,62.364837 5.706205,5.466496 -11.184396,0.274789 5.700359,5.460649 z"
       id="path21"
       sodipodi:nodetypes="ccccc" /></g></svg>
